<?xml version="1.0" encoding="UTF-8"?> <svg xmlns="http://www.w3.org/2000/svg" xmlns:xlink="http://www.w3.org/1999/xlink" version="1.1" id="Layer_1" x="0px" y="0px" viewBox="0 0 300 190.6" style="enable-background:new 0 0 300 190.6;" xml:space="preserve"> <style type="text/css"> .st0{fill-rule:evenodd;clip-rule:evenodd;fill:#00A7BD;} .st1{fill-rule:evenodd;clip-rule:evenodd;fill:#D9DADA;} .st2{fill-rule:evenodd;clip-rule:evenodd;fill:#2C0337;} .st3{fill-rule:evenodd;clip-rule:evenodd;fill:url(#SVGID_1_);} .st4{fill-rule:evenodd;clip-rule:evenodd;fill:url(#SVGID_4_);} .st5{fill-rule:evenodd;clip-rule:evenodd;fill:url(#SVGID_11_);} .st6{fill-rule:evenodd;clip-rule:evenodd;fill:#020204;} .st7{fill-rule:evenodd;clip-rule:evenodd;fill:#00899B;} </style> <g> <path class="st0" d="M268.8,151.2h-7.3c0.2,1.9,0.7,3.6,1.4,5.2c0.8,1.8,2,3.3,3.5,4.5l0,0c1.4,1.2,3.2,2.1,5.4,2.7 c2.2,0.6,4.8,0.9,7.8,0.9c2.9,0,5.5-0.3,7.7-0.9c2.2-0.6,4-1.5,5.5-2.7c1.5-1.2,2.6-2.7,3.3-4.5c0.8-1.8,1.1-3.8,1.1-6.1 c0-1.1-0.1-2.1-0.3-3c-0.2-0.9-0.6-1.8-1-2.7c-0.4-0.8-1-1.4-1.6-2.1l0,0c-0.6-0.6-1.3-1.2-2.2-1.7l-3.7-1.6 c-0.5-0.1-1.2-0.3-2-0.5l-0.8-0.2l0,0c-0.6-0.2-1.3-0.3-2-0.6c-0.6-0.2-1.4-0.4-2.2-0.7c-0.4-0.1-0.9-0.2-1.4-0.3 c-0.6-0.1-1.3-0.3-2.1-0.6c-2.8-0.6-4.9-1.4-6.3-2.4c-1.7-1.2-2.5-2.6-2.5-4.2c0-1.1,0.2-2.1,0.6-2.9c0.4-0.9,1.1-1.6,1.9-2.3 c0.7-0.6,1.6-1,2.8-1.3c1.1-0.3,2.4-0.4,3.8-0.4c1.5,0,2.9,0.2,4.1,0.5c1.3,0.3,2.4,0.8,3.3,1.5l0,0c0.5,0.4,0.9,0.8,1.3,1.3 c0.4,0.5,0.7,1,1,1.5l0,0c0.4,0.8,0.8,1.3,1.4,1.7c0.6,0.4,1.2,0.5,2.1,0.5h4.2c-0.2-1.6-0.6-3.1-1.2-4.5c-0.7-1.7-1.8-3.2-3.3-4.5 c-1.4-1.2-3-2-5-2.6c-2-0.6-4.4-0.9-7.1-0.9c-2.9,0-5.4,0.3-7.5,0.9c-2.1,0.6-3.9,1.4-5.3,2.5l0,0c-1.4,1.2-2.4,2.5-3.1,4.1 c-0.7,1.6-1.1,3.4-1.1,5.5c0,1.2,0.1,2.3,0.3,3.2c0.2,0.9,0.5,1.8,0.9,2.5l0.1,0.2c0.3,0.8,0.7,1.6,1.3,2.2c0.5,0.6,1.2,1.2,2,1.6 l0.1,0.1c0.7,0.5,1.7,1,3.2,1.4c1.5,0.5,3.4,1,5.7,1.5l0,0c0.7,0.2,1.2,0.3,1.2,0.3l0.1,0.1l0.1,0.1c4.2,0.9,7.3,2,9.4,3.3 c2.5,1.4,3.7,3.1,3.7,5c0,1.1-0.2,2.2-0.7,3.1c-0.5,0.9-1.1,1.7-2,2.3c-0.9,0.6-1.9,1-3.1,1.3c-1.2,0.3-2.5,0.4-4,0.4 c-1.7,0-3.2-0.2-4.6-0.5c-1.4-0.4-2.6-0.9-3.6-1.6c-1-0.7-1.9-1.6-2.5-2.7C269.4,153.2,269.1,152.3,268.8,151.2z"></path> <path class="st0" d="M178.8,122.5v40.9h30.3v-6.3h-23v-38.3h-3.6c-0.5,0-1,0.1-1.4,0.3c-0.4,0.2-0.8,0.5-1.2,0.8l0,0 c-0.4,0.4-0.6,0.8-0.8,1.2C178.9,121.5,178.8,121.9,178.8,122.5z"></path> <path class="st0" d="M143.8,163.4v-16.8H157c2.2,0,4.1-0.3,5.8-0.9c1.6-0.6,2.9-1.4,4-2.5c1.1-1.2,2-2.7,2.5-4.4 c0.6-1.7,0.9-3.7,0.9-6c0-2.4-0.3-4.5-0.9-6.2c-0.6-1.7-1.4-3.1-2.6-4.3l0,0c-1.1-1.1-2.5-2-4.2-2.6c-1.7-0.6-3.8-0.9-6.2-0.9h-16 c-0.5,0-1,0.1-1.4,0.3c-0.4,0.2-0.8,0.4-1.2,0.8c-0.4,0.4-0.6,0.8-0.8,1.2c-0.2,0.4-0.3,0.9-0.3,1.4v40.9H143.8L143.8,163.4z M154.5,140.5h-10.6v-16H155c1.2,0,2.2,0.2,3.2,0.5c1,0.3,1.9,0.8,2.6,1.5l0.1,0.1c0.6,0.8,1.1,1.6,1.5,2.6c0.3,1,0.5,2,0.5,3.2 c0,1.4-0.2,2.5-0.5,3.5c-0.4,1-0.9,1.9-1.6,2.5l0,0C159.5,139.9,157.4,140.5,154.5,140.5z"></path> <path class="st0" d="M91.3,122.5v40.9h7.2l0-35.8l21.2,35.8h8.1v-44.8h-7.2l0,35.8l-21.1-35.8H95c-0.5,0-1,0.2-1.4,0.4 c-0.4,0.2-0.9,0.5-1.2,0.9c-0.4,0.4-0.6,0.8-0.8,1.2C91.3,121.5,91.3,121.9,91.3,122.5z"></path> <path class="st0" d="M9.9,151.2H2.6c0.2,1.9,0.7,3.6,1.4,5.2c0.8,1.8,2,3.3,3.5,4.5l0,0c1.4,1.2,3.2,2.1,5.4,2.7 c2.2,0.6,4.8,0.9,7.8,0.9c2.9,0,5.5-0.3,7.7-0.9c2.2-0.6,4-1.5,5.5-2.7c1.5-1.2,2.6-2.7,3.3-4.5c0.8-1.8,1.1-3.8,1.1-6.1 c0-1.1-0.1-2.1-0.3-3c-0.2-0.9-0.6-1.8-1-2.7c-0.4-0.8-1-1.4-1.6-2.1l0,0c-0.6-0.6-1.3-1.2-2.2-1.7l-3.7-1.6 c-0.5-0.1-1.2-0.3-2-0.5l-0.8-0.2l0,0c-0.6-0.2-1.3-0.3-2-0.6c-0.6-0.2-1.4-0.4-2.2-0.7c-0.4-0.1-0.9-0.2-1.4-0.3 c-0.6-0.1-1.3-0.3-2.1-0.6c-2.8-0.6-4.9-1.4-6.3-2.4c-1.7-1.2-2.5-2.6-2.5-4.2c0-1.1,0.2-2.1,0.6-2.9c0.4-0.9,1.1-1.6,1.9-2.3 c0.7-0.6,1.6-1,2.8-1.3c1.1-0.3,2.4-0.4,3.8-0.4c1.5,0,2.9,0.2,4.1,0.5c1.3,0.3,2.4,0.8,3.3,1.5l0,0c0.5,0.4,0.9,0.8,1.3,1.3 c0.4,0.5,0.7,1,1,1.5l0,0c0.4,0.8,0.8,1.3,1.4,1.7c0.6,0.4,1.2,0.5,2.1,0.5h4.2c-0.2-1.6-0.6-3.1-1.2-4.5c-0.7-1.7-1.8-3.2-3.3-4.5 c-1.4-1.2-3-2-5-2.6c-2-0.6-4.4-0.9-7.1-0.9c-2.9,0-5.4,0.3-7.5,0.9c-2.1,0.6-3.9,1.4-5.3,2.5l0,0C6,122,5,123.4,4.3,124.9 c-0.7,1.6-1.1,3.4-1.1,5.5c0,1.2,0.1,2.3,0.3,3.2c0.2,0.9,0.5,1.8,0.9,2.5l0.1,0.2c0.3,0.8,0.7,1.6,1.3,2.2c0.5,0.6,1.2,1.2,2,1.6 l0.1,0.1c0.7,0.5,1.7,1,3.2,1.4c1.5,0.5,3.4,1,5.7,1.5l0,0c0.7,0.2,1.2,0.3,1.2,0.3l0.1,0.1l0.1,0.1c4.2,0.9,7.3,2,9.4,3.3 c2.5,1.4,3.7,3.1,3.7,5c0,1.1-0.2,2.2-0.7,3.1c-0.5,0.9-1.1,1.7-2,2.3c-0.9,0.6-1.9,1-3.1,1.3c-1.2,0.3-2.5,0.4-4,0.4 c-1.7,0-3.2-0.2-4.6-0.5c-1.4-0.4-2.6-0.9-3.6-1.6c-1-0.7-1.9-1.6-2.5-2.7C10.4,153.2,10.1,152.3,9.9,151.2z"></path> <path class="st0" d="M224.9,146.9v-28.3h-7.5v29.4c0,2.8,0.4,5.2,1.2,7.3c0.8,2,1.9,3.7,3.4,5.1l0,0c1.4,1.4,3.1,2.4,5.3,3.1 c2.2,0.7,4.8,1.1,7.8,1.1c3,0,5.6-0.4,7.8-1.1c2.1-0.7,3.9-1.7,5.3-3.1l0,0c1.5-1.4,2.6-3.1,3.4-5.1c0.8-2.1,1.2-4.5,1.2-7.3v-29.4 h-7.3v28.3c0,2-0.2,3.7-0.6,5.1c-0.4,1.5-1,2.8-1.9,3.7l0,0c-0.9,1-2,1.7-3.4,2.2c-1.3,0.5-2.8,0.7-4.5,0.7c-1.7,0-3.2-0.2-4.5-0.7 c-1.4-0.5-2.5-1.2-3.3-2.2l0-0.1c-0.8-1-1.4-2.3-1.8-3.8C225.1,150.5,224.9,148.8,224.9,146.9z"></path> <rect x="115" y="20" transform="matrix(0.7071 -0.7071 0.7071 0.7071 4.7861 122.7944)" class="st1" width="71.2" height="71.2"></rect> <rect x="117.2" y="22.2" transform="matrix(0.7071 -0.7071 0.7071 0.7071 4.7862 122.7946)" class="st2" width="66.9" height="66.9"></rect> <linearGradient id="SVGID_1_" gradientUnits="userSpaceOnUse" x1="145.295" y1="77.1242" x2="170.259" y2="43.9174"> <stop offset="0" style="stop-color:#34348C"></stop> <stop offset="0.247" style="stop-color:#3A609C"></stop> <stop offset="0.5127" style="stop-color:#488AA5"></stop> <stop offset="0.736" style="stop-color:#5BA7A5"></stop> <stop offset="0.905" style="stop-color:#69B9A2"></stop> <stop offset="1" style="stop-color:#6EC0A0"></stop> </linearGradient> <path class="st3" d="M145.2,50.1v33.3h2.2c2.3,0,4.2-1.9,4.2-4.2V51.4h13.7c0.6,0,1.1,0.1,1.5,0.3c1.3,0.7,1.9,1.7,1.9,3.2V62 c0,1.9-1.5,3.4-3.4,3.4h-12.7v6.2h14.7c4.2,0,7.7-3.4,7.7-7.7V53.7c0-4.8-3.9-8.7-8.7-8.7h-15.9C147.5,45,145.2,47.3,145.2,50.1z"></path> <g> <defs> <path id="SVGID_2_" d="M168.3,63.6c-0.6,1.1-1.7,1.8-3,1.8h-12.7v6.2h14.7c4.2,0,7.7-3.4,7.7-7.7v-0.3H168.3z"></path> </defs> <clipPath id="SVGID_3_"> <use xlink:href="#SVGID_2_" style="overflow:visible;"></use> </clipPath> <g transform="matrix(1 0 0 1 0 0)" style="clip-path:url(#SVGID_3_);"> <image style="overflow:visible;" width="132" height="47" transform="matrix(0.1692 0 0 0.1703 152.6264 63.5939)"> </image> </g> </g> <linearGradient id="SVGID_4_" gradientUnits="userSpaceOnUse" x1="136.6395" y1="68.4135" x2="160.7995" y2="34.2056"> <stop offset="0" style="stop-color:#EA552B"></stop> <stop offset="1" style="stop-color:#FFEE46"></stop> </linearGradient> <path class="st4" d="M163.8,41.1c0-0.9-0.2-1.8-0.5-2.9c-1.9-4.3-4.9-6.5-8.9-6.5h-11.9c-1,0-1.9,0.2-2.8,0.5 c-3.1,1.2-5.1,3.2-6,5.8c-0.4,1.2-0.6,2.4-0.6,3.8V46c0,0.3,0,0.6,0,0.8c0.3,3.2,2.6,5.9,5.7,6.8l17.3,5.1c0.7,0.2,1.2,0.9,1.2,1.6 v2.1c0,0.2-0.1,0.5-0.2,1c-0.6,1.3-1.8,2-3.4,2c-7.6,0-11.5,0-12-0.1c-1.6-0.6-2.5-1.8-2.5-3.6c0-1.1-0.5-2.1-1.2-2.9 c-0.7-0.7-1.7-1.2-2.9-1.2h-2.2v4.6c0,0.9,0.2,1.8,0.5,2.9c1.9,4.3,4.9,6.5,8.9,6.5h11.9c1,0,1.9-0.2,2.8-0.5 c4.4-1.8,6.6-5,6.6-9.7v-1.4c0-3.5-2.3-6.6-5.6-7.6l-17.4-5.3c-0.3-0.1-0.6-0.3-0.8-0.5c-0.3-0.3-0.4-0.7-0.4-1.1v-4.8 c0-0.2,0.1-0.5,0.2-1c0.6-1.3,1.7-2,3.4-2c7.6,0,11,0,11.4,0.1c2.4,0,2.9,1.6,3,3.2v0.2c0,2,1.6,3.6,3.6,3.6h2.7V41.1z"></path> <g> <defs> <path id="SVGID_5_" d="M175,56.9v3.7l-6.3,0.2v-6c0-1.5-0.6-2.5-1.9-3.2c-0.4-0.2-0.9-0.3-1.5-0.3h5.4c2.3,0,4.2,1.9,4.2,4.2 L175,56.9z"></path> </defs> <clipPath id="SVGID_6_"> <use xlink:href="#SVGID_5_" style="overflow:visible;"></use> </clipPath> <g style="clip-path:url(#SVGID_6_);"> <image style="overflow:visible;" width="57" height="57" transform="matrix(0.1694 0 0 0.1671 165.3084 51.3506)"> </image> </g> </g> <g> <defs> <path id="SVGID_7_" d="M139.5,40.9v4.8c0,0.4,0.2,0.8,0.4,1.1h-6.8c0-0.3,0-0.6,0-0.8l0-3.4c0-2.6,2.1-4.7,4.7-4.7h5.3 c-1.6,0-2.7,0.7-3.4,2C139.6,40.4,139.5,40.7,139.5,40.9z"></path> </defs> <clipPath id="SVGID_8_"> <use xlink:href="#SVGID_7_" style="overflow:visible;"></use> </clipPath> <g style="clip-path:url(#SVGID_8_);"> <image style="overflow:visible;" width="59" height="52" transform="matrix(0.1694 0 0 0.1716 133.1238 37.9193)"> </image> </g> </g> <g> <defs> <path id="SVGID_9_" d="M156.2,58.7c0.7,0.2,1.2,0.9,1.2,1.6v2.1c0,0.2-0.1,0.5-0.2,1c-0.6,1.3-1.8,2-3.4,2c-0.3,0-0.7,0-1,0v6.3 h1.6c1,0,1.9-0.2,2.8-0.5c2.8-1.1,4.7-2.8,5.7-5c0-0.1,0.1-0.1,0.1-0.2c1-2.6-0.5-5.4-3.1-6.2L156.2,58.7z"></path> </defs> <clipPath id="SVGID_10_"> <use xlink:href="#SVGID_9_" style="overflow:visible;"></use> </clipPath> <g transform="matrix(1 0 0 1 0 3.814697e-06)" style="clip-path:url(#SVGID_10_);"> <image style="overflow:visible;" width="62" height="77" transform="matrix(0.1683 0 0 0.1688 152.8209 58.6869)"> </image> </g> </g> <linearGradient id="SVGID_11_" gradientUnits="userSpaceOnUse" x1="142.1527" y1="77.8893" x2="163.9386" y2="43.313"> <stop offset="0" style="stop-color:#34348C"></stop> <stop offset="0.247" style="stop-color:#3A609C"></stop> <stop offset="0.5127" style="stop-color:#488AA5"></stop> <stop offset="0.736" style="stop-color:#5BA7A5"></stop> <stop offset="0.905" style="stop-color:#69B9A2"></stop> <stop offset="1" style="stop-color:#6EC0A0"></stop> </linearGradient> <path class="st5" d="M145.2,55.5v27.9h2.2c2.3,0,4.2-1.9,4.2-4.2V57.4L145.2,55.5z"></path> <g> <defs> <polygon id="SVGID_12_" points="151.6,73 151.6,57.4 145.2,55.5 145.2,73 "></polygon> </defs> <clipPath id="SVGID_13_"> <use xlink:href="#SVGID_12_" style="overflow:visible;"></use> </clipPath> <g transform="matrix(1 0 0 1 0 -3.814697e-06)" style="clip-path:url(#SVGID_13_);"> <image style="overflow:visible;" width="39" height="103" transform="matrix(0.1647 0 0 0.17 145.2202 55.4837)"> </image> </g> </g> <g> <defs> <path id="SVGID_14_" d="M139.4,61.7c0-1.1-0.5-2.1-1.2-2.9c-0.7-0.7-1.7-1.2-2.9-1.2h-2.2v2.7c0,0.2,0,0.7,0.1,1.3 c0.2,2,1.9,3.6,4,3.6h4.7C140.2,64.7,139.4,63.5,139.4,61.7z"></path> </defs> <clipPath id="SVGID_15_"> <use xlink:href="#SVGID_14_" style="overflow:visible;"></use> </clipPath> <g style="clip-path:url(#SVGID_15_);"> <image style="overflow:visible;" width="51" height="46" transform="matrix(0.1712 0 0 0.1663 133.1238 57.6451)"> </image> </g> </g> <g> <defs> <path id="SVGID_16_" d="M157.5,41.2v0.2c0,2,1.6,3.6,3.6,3.6h2.7c0,0,0-0.8,0-1.8c0-2.8-2.3-5.1-5.1-5.1c-2.4,0-4.2,0-4.2,0 C156.9,38,157.4,39.6,157.5,41.2z"></path> </defs> <clipPath id="SVGID_17_"> <use xlink:href="#SVGID_16_" style="overflow:visible;"></use> </clipPath> <g style="clip-path:url(#SVGID_17_);"> <image style="overflow:visible;" width="55" height="41" transform="matrix(0.1693 0 0 0.1686 154.4922 38.0407)"> </image> </g> </g> <path class="st6" d="M226.6,184.7c-1,0.4-1.9,0.6-2.7,0.6c-1.5,0-2.8-0.5-3.9-1.4c-1.5-1.2-2.2-2.8-2.2-4.7c0-1.9,0.7-3.5,2.2-4.7 c1.2-0.9,2.5-1.4,4-1.4c0.8,0,1.7,0.2,2.7,0.6v3.6c-0.3-0.3-0.6-0.6-0.9-0.8c-0.5-0.3-1.1-0.5-1.7-0.5c-0.8,0-1.5,0.2-2,0.7 c-0.7,0.6-1.1,1.4-1.1,2.5c0,1,0.4,1.9,1.1,2.5c0.6,0.5,1.3,0.7,2,0.7c0.6,0,1.2-0.2,1.7-0.5c0.3-0.2,0.6-0.4,0.9-0.8V184.7 L226.6,184.7z M236.3,185h-6.6v-11.6h6.6v2.5h-3.6v2h3.4v2.5h-3.4v2.1h3.6V185L236.3,185z M249,185h-3.7l-2.9-4.4v4.4h-3v-11.6h4.7 c1.4,0,2.4,0.4,3,1.2c0.5,0.7,0.8,1.4,0.8,2.3c0,1-0.3,1.9-0.9,2.5c-0.4,0.4-0.9,0.7-1.6,0.8L249,185L249,185z M244.8,177.1 c0-0.4-0.2-0.8-0.5-1c-0.3-0.3-0.7-0.4-1.4-0.4h-0.6v2.9h0.6c0.6,0,1.1-0.1,1.4-0.4C244.6,177.9,244.8,177.5,244.8,177.1 L244.8,177.1z M262.5,185h-3.2l-0.7-2h-4.2l-0.8,2h-3.2l4.5-11.6h3.3L262.5,185L262.5,185z M257.7,180.7l-1.3-3.7l-1.3,3.7H257.7 L257.7,180.7z M276.5,185h-6.6v-11.6h3v9.1h3.6V185L276.5,185z M285.8,185h-6.6v-11.6h3v9.1h3.6V185L285.8,185z M297.4,177.2 c0,1-0.2,1.9-0.7,2.6c-0.6,0.9-1.7,1.3-3.2,1.3h-1.9v3.8h-3v-11.6h4.8c1.4,0,2.4,0.4,3.1,1.2C297.1,175.2,297.4,176.1,297.4,177.2 L297.4,177.2z M294.3,177.2c0-0.4-0.1-0.8-0.4-1.1c-0.3-0.3-0.7-0.4-1.3-0.4h-1v2.9h1c0.7,0,1.1-0.1,1.3-0.4 C294.2,178,294.3,177.7,294.3,177.2z"></path> <path class="st0" d="M54.7,146.9v-28.3h-7.5v29.4c0,2.8,0.4,5.2,1.2,7.3c0.8,2,1.9,3.7,3.4,5.1l0,0c1.4,1.4,3.1,2.4,5.3,3.1 c2.2,0.7,4.8,1.1,7.8,1.1c3,0,5.6-0.4,7.8-1.1c2.1-0.7,3.9-1.7,5.3-3.1l0,0c1.5-1.4,2.6-3.1,3.4-5.1c0.8-2.1,1.2-4.5,1.2-7.3v-29.4 h-7.3v28.3c0,2-0.2,3.7-0.6,5.1c-0.4,1.5-1,2.8-1.9,3.7l0,0c-0.9,1-2,1.7-3.4,2.2c-1.3,0.5-2.8,0.7-4.5,0.7c-1.7,0-3.2-0.2-4.5-0.7 c-1.4-0.5-2.5-1.2-3.3-2.2l0-0.1c-0.8-1-1.4-2.3-1.8-3.8C54.9,150.5,54.7,148.8,54.7,146.9z"></path> <polygon class="st7" points="224.9,145.5 224.9,118.5 230.8,125.6 "></polygon> <polygon class="st7" points="245.5,145.5 245.5,118.5 239.6,125.6 "></polygon> <polygon class="st0" points="225.6,148.3 244.6,148.3 243.5,145.9 226.8,145.9 "></polygon> <polygon class="st0" points="226.9,144 243.4,144 242.4,141.9 227.9,141.9 "></polygon> <polygon class="st0" points="228,140.1 242.3,140.1 241.4,138.3 228.8,138.3 "></polygon> <polygon class="st0" points="228.9,136.4 241.3,136.4 240.6,134.9 229.7,134.9 "></polygon> <polygon class="st0" points="229.8,133 240.5,133 239.9,131.7 230.4,131.7 "></polygon> <polygon class="st0" points="230.5,129.8 239.8,129.8 239.2,128.6 231,128.6 "></polygon> <polygon class="st0" points="231.1,126.8 239.2,126.8 238.7,125.8 231.6,125.8 "></polygon> </g> </svg> 